<svg version="1" xmlns="http://www.w3.org/2000/svg" width="296" height="296" viewBox="0 0 222.000000 222.000000"><path d="M107.5 3.7c-2.2.7-4.9 1.7-6 2.2-1.1.5-3.8 1.7-6 2.7-2.2.9-3.4 1.9-2.7 2.2.6.2 1 .8.7 1.3-.4.5-1.4.4-2.4-.2C89.7 11 84 13 61.4 22.4L33.5 34.1l-7.2 17.8c-4 9.8-7.3 18.3-7.3 18.8 0 .6 2.3 4 5.1 7.5l5.1 6.3-5.5-6c-3-3.3-5.7-5.8-5.9-5.5-.3.3-3.9 9.1-8.1 19.6L2 111.8l2.4 6.3c5.3 14 27.8 68.5 28.7 69.4.7.6 1.3.5 2-.5.7-1.1.8-.8.4 1-.6 2.5-.1 2.8 15.7 9.3 9 3.7 16.9 6.7 17.6 6.7.7 0 2.2-2 3.4-4.5 1.2-2.5 2.5-4.5 3-4.5.4 0-.1 1.5-1.1 3.2-4 7-3.9 7.1 5.1 10.7 4.6 1.8 9.7 3.9 11.3 4.7 16.8 7.6 21.6 8.3 29.8 4.4 2.1-1 5-2.1 6.5-2.5 1.5-.3 3.5-1.2 4.5-2 1.8-1.3 1.8-1.4 0-3.6-1-1.2-3.1-3.5-4.7-5.1-1.5-1.6-2.6-3.2-2.3-3.5.6-.5 8.7 7.7 8.7 8.8 0 2.2 4.3 1.2 14.7-3.1 10.6-4.5 16-8 14.9-9.9-.2-.3.6-1.5 1.6-2.6 2-2 2-2 .3 1.3-.9 1.9-1.4 3.6-1.1 3.9.3.3 6-1.8 12.8-4.6l12.3-5.2 4.9-12c4-9.8 4.6-12.2 3.6-13.4-1.1-1.3-1-1.4.3-.9 1.8.7 1.1 2.3 13.8-29.3 9.6-23.7 9.2-21.6 5.7-30.3l-1-2.5-1.9 3.7c-2.7 5.3-3.3 4.7-.7-.7l2.2-4.4-7.1-17.3c-3.9-9.5-9.9-24.4-13.4-33l-6.4-15.7-9.9-4.2-9.9-4.1-1.9 2.4-1.9 2.3 1.1-2.4c1.4-2.8 1.2-3.1-7.5-6.5-3.8-1.6-8.5-3.5-10.2-4.3-19.4-8.5-29.7-11.9-29.1-9.6.3 1.4-1.4 5.7-3 7.5-.8 1-1.1 1.8-.7 1.8.4 0 0 .9-1 2s-1.5 2-1.1 2c.3 0 0 1.3-.9 3-.9 1.6-1.2 3-.9 3 .4 0 0 .8-.9 1.8-1 1-1.4 2.2-1 2.7.5.4.3.5-.4.1-1.2-.7-.8-3 .8-5.2.5-.6.6-1.4.2-1.7-.3-.4-.1-.7.6-.7s.9-.5.6-1c-.3-.6-.1-1 .6-1s.9-.3.6-.7c-.4-.3 0-1.5 1-2.5.9-1 1.3-1.8.8-1.8-.4 0 0-1.1.9-2.5s1.3-2.5.9-2.5c-.5 0-.2-.4.5-.8.7-.5 1.5-2 1.7-3.4.4-2.1-.1-2.7-3.3-4-3.2-1.3-4.4-1.3-7.7-.1zM95.9 15.9c1.1 1.1 1.7 2.1 1.5 2.4-.2.2.9 1.8 2.6 3.5 1.7 1.8 2.5 3.2 1.8 3.2s-3-2.5-5.1-5.5c-3.9-5.6-4.2-7-.8-3.6zm10.7 14.8c-.6.6-4.6-3-4.6-4.1 0-.5 1.1.1 2.5 1.4 1.4 1.3 2.3 2.5 2.1 2.7zM163 35c0 .5-.2 1-.4 1-.3 0-.8-.5-1.1-1-.3-.6-.1-1 .4-1 .6 0 1.1.4 1.1 1zm-56.9 2.3c-.6.8-.7 1.8-.3 2.2.4.5.1.5-.6.1-1-.6-1-1.1-.1-2.2.6-.8 1.4-1.4 1.6-1.4.3 0 0 .6-.6 1.3zm9 6.7c2.6 4.4 4.5 8 4.3 8-.4 0-7.9-11.1-9.4-14.1-.6-1-.7-1.9-.3-1.9.4.1 2.9 3.7 5.4 8zm45.9-5c-.6 1.1-1.2 2-1.4 2-.2 0-.2-.9.1-2 .3-1.1.9-2 1.5-2 .5 0 .4.9-.2 2zm-59.5 8.2c-1 1.3-1.4 1.6-1.1.8.3-.8.9-2.4 1.3-3.5s.8-1.4 1.1-.7c.2.6-.4 2.2-1.3 3.4zm54 1.7c-2.2 4.4-2.7 3.8-.7-.9.9-2.1 1.8-3.5 2-3 .2.5-.4 2.2-1.3 3.9zm-55.2 1.8c-.7.2-1.3 1.1-1.3 1.8 0 .8-.5 1.7-1.2 2.1-.6.4-.9.3-.6-.2.3-.5.8-1.7 1.1-2.7.4-.9 1.2-1.7 1.9-1.6 1 0 1 .2.1.6zM122 54c0 .5-.2 1-.4 1-.3 0-.8-.5-1.1-1-.3-.6-.1-1 .4-1 .6 0 1.1.4 1.1 1zm29.3 2.5c-.3.9-.8 1.4-1 1.1-.3-.3-.2-.9.2-1.5.9-1.6 1.5-1.3.8.4zm-27.8.5c-.3.5-.1 1 .6 1s1 .3.6.6c-.9.9-2.8-.6-2.2-1.7.4-.5.8-.9 1.1-.9.3 0 .2.4-.1 1zm-28.2 4.2c-1 1.1-1.7 2.1-1.5 2.2.8.3-1.1 3.6-2.1 3.6-.5 0-.2-.9.8-2s1.4-2 1-2c-.4 0-.1-.8.8-1.8 1-1 1.4-2.2 1-2.7-.5-.4-.2-.5.5-.1 1.1.6 1 1.2-.5 2.8zm54.2-1.2c-.3.5-1.1 1-1.6 1-.6 0-.7-.5-.4-1 .3-.6 1.1-1 1.6-1 .6 0 .7.4.4 1zm-18.6 7.4c-.3.3-1.1-.5-1.8-1.7-1.3-2.1-1.2-2.1.5-.5 1 1 1.6 2 1.3 2.2zm13.5 2c-.3.9-1 1.6-1.5 1.6s-.4-.9.3-2c1.4-2.2 2.1-2 1.2.4zM133 70c0 .5-.4 1-1 1-.5 0-1-.5-1-1 0-.6.5-1 1-1 .6 0 1 .4 1 1zm-44 6.3c0 .2-.9 1.2-2 2.2-2.4 2.1-2.7 1.4-.4-.9 1.5-1.5 2.4-2 2.4-1.3zM86 82c0 .5-.4 1-1 1-.5 0-1-.5-1-1 0-.6.5-1 1-1 .6 0 1 .4 1 1zm55.4.6c.3.8.2 1.2-.4.9-.6-.3-1-1-1-1.6 0-1.4.7-1.1 1.4.7zm-58.1 2.9c-.3.9-.8 1.4-1 1.1-.3-.3-.2-.9.2-1.5.9-1.6 1.5-1.3.8.4zm-51.8 1.3c-.3.3-1.1 0-1.8-.7-.9-1-.8-1.1.6-.5 1 .3 1.5.9 1.2 1.2zM136 85.4c0 .3-.4.8-1 1.1-.5.3-1 .1-1-.4 0-.6.5-1.1 1-1.1.6 0 1 .2 1 .4zm8.6 1.7c1.9 2.2 1.9 2.2-.3.8-1.3-.8-2.3-1.7-2.3-2.1 0-1.2.6-.9 2.6 1.3zM41 98.5c4 4.9 8 9.6 8.8 10.2.9.7 1.3 1.5 1 1.8-.5.5-16.4-18.3-18.2-21.5-1.4-2.3.3-.4 8.4 9.5zm109.9-1.6c0 1.4-.1 1.4-.6.1-.3-.8-1.7-2.9-3.2-4.5l-2.6-3 3.3 2.9c1.7 1.7 3.2 3.7 3.1 4.5zM132 92c0 .5-.5 1-1.1 1-.5 0-.7-.5-.4-1 .3-.6.8-1 1.1-1 .2 0 .4.4.4 1zm-52 2c0 .5-.5 1-1.1 1-.5 0-.7-.5-.4-1 .3-.6.8-1 1.1-1 .2 0 .4.4.4 1zm49.2 3.2c-.8.8-.9.4-.5-1.3.4-1.3.8-1.8 1.1-1 .2.7-.1 1.8-.6 2.3zm-50.9.5c-.7.2-1.3 1.1-1.3 1.9 0 .8-.5 1.4-1 1.4-.7 0-.7-.6 0-2 .6-1.1 1.6-2 2.3-1.9.9 0 .9.2 0 .6zm78.6 8.6c0 .7-.3.5-.6-.3s-1.4-2.6-2.4-3.9c-1.1-1.3-1.9-2.8-1.9-3.4 0-.5 1.1.7 2.5 2.7s2.5 4.2 2.4 4.9zm-32.5-1.4c.3.5-.2 1.5-1.2 2.2-1.5 1.2-1.6 1.2-.5-.2.7-.9 1-1.9.6-2.2-.3-.4-.4-.7 0-.7.3 0 .8.4 1.1.9zM69.8 115c-1.7 3.3-3.2 5.9-3.4 5.8-.5-.5 5-11.8 5.7-11.8.4 0-.7 2.7-2.3 6zm94.5.5c4.9 7.1 4.2 7.1-1.1 0-2.3-3-3.8-5.5-3.4-5.5.4 0 2.4 2.5 4.5 5.5zm-107.2 2.7c3.1 4.3 1.7 3.4-2.1-1.5-1.9-2.3-2.6-3.6-1.7-2.8 1 .8 2.7 2.7 3.8 4.3zm62.2-3.2c-.5 1.9-2.3 3.9-2.3 2.5 0-.9 2-4.5 2.4-4.5.2 0 .2.9-.1 2zm88.6 1.5c-1.2 1.9-2.3 3.5-2.5 3.5-.6 0 1.4-4 2.9-5.8 1.8-2.3 1.6-1.2-.4 2.3zm-95.1 10.7c-1.8 3.5-3.1 6.6-3 7 .1.5-.2.8-.8.8-.5 0-1 .6-1 1.4 0 .7-.9 2.5-2.1 4-1.1 1.4-1.7 2.6-1.3 2.6.4 0 0 .8-.9 1.8-1 1-1.5 2.1-1.2 2.4.3.3-.5 1.3-1.7 2.4l-2.3 1.9 1.9-2.3c1.1-1.2 1.5-2.2 1.1-2.2-.4 0-.1-.8.8-1.8.8-.9 1.5-1.9 1.5-2.2 0-.7 4.6-10.4 5.2-11 .3-.3 1.1-1.9 1.8-3.5 1.6-3.6 4.1-7.5 4.7-7.5.3 0-.9 2.8-2.7 6.2zm61.2 2.3c1.7 2.5 2.9 4.5 2.6 4.5-.3 0-1.9-2-3.6-4.5-1.7-2.5-2.9-4.5-2.6-4.5.3 0 1.9 2 3.6 4.5zm27.5-1.5c-.9 1.6-1.8 3-2.1 3-.2 0 .2-1.4 1.1-3 .9-1.7 1.8-3 2.1-3 .2 0-.2 1.3-1.1 3zm-139.2 3c-.3 1.1-.9 2-1.5 2-.5 0-.4-.9.2-2 .6-1.1 1.2-2 1.4-2 .2 0 .2.9-.1 2zm5.1-.4c.3.8.2 1.2-.4.9-.6-.3-1-1-1-1.6 0-1.4.7-1.1 1.4.7zm128.1 8.4c-.9 1.6-1.8 3-2.1 3-.2 0 .2-1.4 1.1-3 .9-1.7 1.8-3 2.1-3 .2 0-.2 1.3-1.1 3zm-139.9 5.6c-1.9 3.8-3.5 6.6-3.6 6.2 0-1.1 6.3-13.8 6.8-13.4.2.2-1.3 3.5-3.2 7.2zM77 142c0 .5-.2 1-.4 1-.3 0-.8-.5-1.1-1-.3-.6-.1-1 .4-1 .6 0 1.1.4 1.1 1zm109 5.1c1.5 2.8.5 2.3-1.5-.7-.9-1.5-1.2-2.3-.6-2 .6.4 1.6 1.6 2.1 2.7zM49.1 158.6c-1.6 3.3-3 5.6-3.1 5.2 0-1.1 5.3-11.8 5.8-11.4.2.2-1 3-2.7 6.2zm38.9-4.1c1.9 2.2.8 2.5-1.2.3-1-1-1.4-1.8-.9-1.8.5 0 1.4.7 2.1 1.5zm98.1 1.8c-1 .9-1.1.8-.5-.6.3-1 .9-1.5 1.2-1.2.3.3 0 1.1-.7 1.8zM98 156c0 .5-.2 1-.4 1-.3 0-.8-.5-1.1-1-.3-.6-.1-1 .4-1 .6 0 1.1.4 1.1 1zm-1 2.4c0 .3-.4.8-1 1.1-.5.3-1 .1-1-.4 0-.6.5-1.1 1-1.1.6 0 1 .2 1 .4zm84.5 6.6c-.9 1.6-1.8 3-2.1 3-.2 0 .2-1.4 1.1-3 .9-1.7 1.8-3 2.1-3 .2 0-.2 1.3-1.1 3zm-90.3 3c-.9 1.6-2.1 3-2.5 3-.5 0 .1-1.4 1.3-3 2.7-3.9 3.4-3.9 1.2 0zm7.8.1c0 .5-.4.9-.8.9-.5 0-.9-.7-.9-1.5s.4-1.2.9-.9c.4.3.8.9.8 1.5zm-58.4 8.5c-1.9 3.8-3.5 6.6-3.6 6.2 0-1.1 6.3-13.8 6.8-13.4.2.2-1.3 3.5-3.2 7.2zm63.1-2.1c0 .8-.4 1.2-.9.9-.5-.3-.6-1-.3-1.5.9-1.3 1.2-1.1 1.2.6zm72.3.5c-.6 1.1-1.3 2-1.6 2-.2 0 0-.9.6-2s1.3-2 1.6-2c.2 0 0 .9-.6 2zm-90.5 2.9c-2.1 4.2-3.5 4.7-1.6.6.9-1.9 1.9-3.4 2.4-3.5.4 0 .1 1.3-.8 2.9zm22 1.1c.9 1.6 1.3 3 1.1 3-.3 0-1.2-1.4-2.1-3-.9-1.7-1.3-3-1.1-3 .3 0 1.2 1.3 2.1 3zm7 8.6c.5.7 2.1 2.6 3.5 4.4 1.4 1.7 3.3 4.1 4.3 5.2.9 1.2 1.5 2.3 1.3 2.6-.6.5-4.1-2.8-4.1-3.9 0-.4-1.1-1.7-2.4-2.8-1.3-1.2-2.1-2.1-1.6-2.1.4 0-.9-1.7-2.8-3.7-2-2-3.4-4-3-4.5.3-.5 1.2.1 2.1 1.4.9 1.3 2.1 2.8 2.7 3.4zm56-2.6c-.9 1.6-1.8 3-2.1 3-.2 0 .2-1.4 1.1-3 .9-1.7 1.8-3 2.1-3 .2 0-.2 1.3-1.1 3zm-88.9-.4c-.9.8-1.6 2.2-1.6 3 0 .8-.5 1.4-1 1.4-.6 0-.4-1.3.5-3s2-3 2.6-3c.6 0 .3.7-.5 1.6z"/></svg>